<svg width="1024" height="1024" viewBox="0 0 1024 1024" fill="none" xmlns="http://www.w3.org/2000/svg">

<defs>
  <linearGradient id="darkBg" x1="0" y1="0" x2="0" y2="1">
    <stop offset="0" stop-color="#10172B"/>
    <stop offset="1" stop-color="#0A0F1E"/>
  </linearGradient>

  <radialGradient id="darkGlow" cx="0" cy="0" r="1" gradientUnits="userSpaceOnUse" gradientTransform="translate(520 170) rotate(90) scale(680)">
    <stop offset="0" stop-color="#1B2D55" stop-opacity="0.42"/>
    <stop offset="1" stop-color="#1B2D55" stop-opacity="0"/>
  </radialGradient>

  <linearGradient id="blueText" x1="0" y1="0" x2="0" y2="1">
    <stop offset="0" stop-color="#69C5FF"/>
    <stop offset="1" stop-color="#2D8DDF"/>
  </linearGradient>

  <linearGradient id="goldFill" x1="0" y1="0" x2="1" y2="1">
    <stop offset="0" stop-color="#F9D85E"/>
    <stop offset="0.55" stop-color="#F2C84B"/>
    <stop offset="1" stop-color="#D6A430"/>
  </linearGradient>

  <filter id="softLogoShadow" x="-20%" y="-20%" width="140%" height="150%" color-interpolation-filters="sRGB">
    <feDropShadow dx="0" dy="16" stdDeviation="18" flood-color="#000000" flood-opacity="0.28"/>
  </filter>

  <filter id="goldInsetShadow" x="-20%" y="-20%" width="140%" height="150%" color-interpolation-filters="sRGB">
    <feDropShadow dx="0" dy="5" stdDeviation="5" flood-color="#000000" flood-opacity="0.18"/>
    <feDropShadow dx="0" dy="0" stdDeviation="5" flood-color="#F2C84B" flood-opacity="0.18"/>
  </filter>

  <filter id="textShadow" x="-5%" y="-10%" width="110%" height="130%" color-interpolation-filters="sRGB">
    <feDropShadow dx="0" dy="8" stdDeviation="7" flood-color="#000000" flood-opacity="0.24"/>
  </filter>
</defs>

<g filter="url(#softLogoShadow)">
<rect x="170" y="170" width="684" height="684" rx="52" fill="#121827"/>
<rect x="198.00" y="198.00" width="172.00" height="172.00" rx="28.60" fill="url(#goldFill)" filter="url(#goldInsetShadow)"/>
<path d="M206.00 206.00 C220.00 201.00 344.00 201.00 361.00 208.00" stroke="#FFF2B0" stroke-width="3" stroke-opacity="0.30" stroke-linecap="round" fill="none"/>
<rect x="426.00" y="654.00" width="172.00" height="172.00" rx="28.60" fill="url(#goldFill)" filter="url(#goldInsetShadow)"/>
<path d="M434.00 662.00 C448.00 657.00 572.00 657.00 589.00 664.00" stroke="#FFF2B0" stroke-width="3" stroke-opacity="0.30" stroke-linecap="round" fill="none"/>
<rect x="170" y="170" width="684" height="684" rx="52" fill="none" stroke="#F8FAFC" stroke-width="22" stroke-linejoin="round"/>
<line x1="398.00" y1="181.00" x2="398.00" y2="843.00" stroke="#F8FAFC" stroke-width="22" stroke-linecap="butt"/>
<line x1="181.00" y1="398.00" x2="843.00" y2="398.00" stroke="#F8FAFC" stroke-width="22" stroke-linecap="butt"/>
<line x1="626.00" y1="181.00" x2="626.00" y2="843.00" stroke="#F8FAFC" stroke-width="22" stroke-linecap="butt"/>
<line x1="181.00" y1="626.00" x2="843.00" y2="626.00" stroke="#F8FAFC" stroke-width="22" stroke-linecap="butt"/>
</g>
</svg>
